<svg width="57" height="45" viewBox="0 0 57 45" fill="none" xmlns="http://www.w3.org/2000/svg">
<path d="M1 35.6236L0.539923 36.3971C0.177377 36.1814 0.0132431 35.7429 0.145097 35.3422C0.276952 34.9415 0.669412 34.6862 1.08917 34.728L1 35.6236ZM15.0831 44L15.812 43.4721C16.0624 43.8178 16.0355 44.2919 15.7476 44.607C15.4596 44.9222 14.9899 44.9917 14.623 44.7735L15.0831 44ZM1 35.6236L1.25284 36.4873C0.829738 36.6112 0.379205 36.4103 0.188533 36.0128C-0.0021399 35.6153 0.123181 35.1382 0.484582 34.8858L1 35.6236ZM14.2012 26.4013L13.6858 25.6635C14.002 25.4426 14.4238 25.4477 14.7345 25.6763C15.0452 25.9048 15.1757 26.3058 15.0591 26.6735L14.2012 26.4013ZM1 35.6236L0.992759 36.5235C0.495996 36.5195 0.0964186 36.1138 0.100024 35.617C0.103629 35.1203 0.509053 34.7204 1.00582 34.7236L1 35.6236ZM22.2938 35.7613L22.2996 34.8613C22.7955 34.8645 23.1954 35.2683 23.1938 35.7642C23.1922 36.2601 22.7897 36.6613 22.2938 36.6613V35.7613ZM51.214 1L50.3277 1.15626C50.2423 0.672308 50.561 0.209389 51.0435 0.116297C51.526 0.0232046 51.994 0.334358 52.0948 0.815311L51.214 1ZM52.0211 5.37024L51.1642 5.64547L51.1642 5.64538L52.0211 5.37024ZM52.2959 6.6385L53.1944 6.58532L53.1944 6.58537L52.2959 6.6385ZM52.4505 8.01374L53.3368 7.85748C53.3459 7.90907 53.3505 7.96136 53.3505 8.01374H52.4505ZM54.3052 15.3506L53.414 15.4758C53.3452 14.9863 53.684 14.533 54.1729 14.4604C54.6618 14.3877 55.1178 14.7229 55.1944 15.2112L54.3052 15.3506ZM55.2326 21.9517H56.1326C56.1326 22.4245 55.7669 22.8166 55.2953 22.8496C54.8238 22.8825 54.4071 22.5451 54.3413 22.077L55.2326 21.9517ZM55.8454 29.4057L54.9457 29.3846C54.9568 28.9104 55.3341 28.5262 55.808 28.5065C56.2819 28.4867 56.6898 28.8382 56.7403 29.3099L55.8454 29.4057ZM55.6909 36.0069L56.5906 36.0279C56.5791 36.5207 56.1733 36.9126 55.6803 36.9068C55.1874 36.901 54.7909 36.4998 54.7909 36.0069L55.6909 36.0069ZM55.5363 36.2819L55.5548 35.3821C56.0401 35.3921 56.43 35.7851 56.4362 36.2704C56.4424 36.7558 56.0626 37.1586 55.5777 37.181L55.5363 36.2819ZM48.8215 36.1442L48.803 37.044C48.3097 37.0339 47.9165 36.6284 47.9215 36.1349C47.9266 35.6415 48.328 35.2442 48.8215 35.2442V36.1442ZM31.8764 36.7687C31.3793 36.7687 30.9764 36.3657 30.9764 35.8687C30.9764 35.3716 31.3793 34.9687 31.8764 34.9687V36.7687ZM1.08917 34.728C6.09979 35.2269 12.0041 38.2148 15.812 43.4721L14.3542 44.5279C10.855 39.6968 5.42117 36.9682 0.910835 36.5191L1.08917 34.728ZM14.623 44.7735L0.539923 36.3971L1.46008 34.85L15.5432 43.2265L14.623 44.7735ZM0.747162 34.7598C2.9519 34.1144 5.7964 33.0272 8.2579 31.5344C10.7493 30.0235 12.6883 28.1939 13.3434 26.1291L15.0591 26.6735C14.2027 29.3725 11.7955 31.4942 9.19128 33.0735C6.55721 34.6709 3.55684 35.8129 1.25284 36.4873L0.747162 34.7598ZM14.7167 27.1391L1.51542 36.3614L0.484582 34.8858L13.6858 25.6635L14.7167 27.1391ZM1 35.6236C1.00724 34.7236 1.00731 34.7236 1.00744 34.7236C1.00757 34.7236 1.00776 34.7236 1.00802 34.7236C1.00854 34.7236 1.00932 34.7236 1.01035 34.7236C1.01243 34.7236 1.01553 34.7237 1.01965 34.7237C1.02789 34.7237 1.0402 34.7238 1.05645 34.724C1.08896 34.7242 1.13727 34.7246 1.20047 34.7251C1.32686 34.7261 1.51278 34.7276 1.75089 34.7295C2.22712 34.7333 2.91212 34.7386 3.74716 34.7451C5.41726 34.758 7.68751 34.7752 10.0882 34.7925C14.8914 34.8269 20.2109 34.8613 22.2938 34.8613V36.6613C20.2028 36.6613 14.8755 36.6268 10.0752 36.5924C7.67417 36.5752 5.40357 36.558 3.73325 36.5451C2.89808 36.5386 2.21298 36.5332 1.73666 36.5294C1.4985 36.5276 1.31253 36.5261 1.1861 36.5251C1.12289 36.5246 1.07456 36.5242 1.04203 36.5239C1.02576 36.5238 1.01345 36.5237 1.0052 36.5236C1.00107 36.5236 0.997964 36.5236 0.995886 36.5236C0.994847 36.5235 0.994066 36.5235 0.993544 36.5235C0.993283 36.5235 0.993087 36.5235 0.992956 36.5235C0.992825 36.5235 0.992759 36.5235 1 35.6236ZM22.288 36.6613L0.994178 36.5235L1.00582 34.7236L22.2996 34.8613L22.288 36.6613ZM52.0948 0.815311C52.2493 1.55177 52.3474 2.34993 52.4526 3.06395C52.5614 3.8025 52.6813 4.4824 52.878 5.09509L51.1642 5.64538C50.9193 4.8827 50.7826 4.07855 50.6718 3.32635C50.5574 2.54963 50.4727 1.85036 50.3332 1.18469L52.0948 0.815311ZM52.878 5.095C53.0049 5.48997 53.1642 6.07601 53.1944 6.58532L51.3975 6.69167C51.3811 6.41545 51.2796 6.00471 51.1642 5.64547L52.878 5.095ZM53.1944 6.58537C53.207 6.79841 53.2443 7.24375 53.2787 7.57966C53.2969 7.75698 53.3108 7.8689 53.317 7.90433C53.3195 7.91916 53.3147 7.88532 53.2999 7.83639C53.2953 7.82118 53.2862 7.79269 53.2716 7.75757C53.2609 7.73161 53.2281 7.65445 53.1641 7.56845C53.1317 7.52496 52.9126 7.22688 52.4838 7.2077C51.9896 7.18559 51.7388 7.53889 51.6851 7.62355C51.6139 7.73566 51.586 7.83616 51.5781 7.8651C51.5665 7.90753 51.5607 7.9415 51.558 7.95871C51.5526 7.99358 51.5511 8.01871 51.5508 8.02345C51.55 8.036 51.5505 8.03604 51.5505 8.01374H53.3505C53.3505 8.04903 53.35 8.09231 53.3473 8.13509C53.3461 8.15495 53.3434 8.19195 53.3366 8.2356C53.3332 8.2572 53.3267 8.29479 53.3143 8.3401C53.3056 8.37191 53.2769 8.47453 53.2049 8.58804C53.1502 8.67409 52.8985 9.02805 52.4033 9.0059C51.9736 8.98668 51.7534 8.68784 51.72 8.64291C51.6549 8.55548 51.621 8.47619 51.6091 8.44744C51.5933 8.40953 51.5831 8.37759 51.5772 8.35827C51.5574 8.29294 51.547 8.23237 51.5434 8.21151C51.5248 8.10416 51.5052 7.92973 51.4881 7.76315C51.452 7.41128 51.4121 6.93864 51.3975 6.69162L53.1944 6.58537ZM51.5642 8.17L50.3277 1.15626L52.1003 0.843744L53.3368 7.85748L51.5642 8.17ZM55.1944 15.2112C55.519 17.2815 56.1326 19.6616 56.1326 21.9517H54.3326C54.3326 19.8455 53.7808 17.816 53.4161 15.49L55.1944 15.2112ZM54.3413 22.077L53.414 15.4758L55.1965 15.2254L56.1238 21.8265L54.3413 22.077ZM56.7403 29.3099C56.9008 30.8094 56.9 32.2844 56.9 33.7229H55.1C55.1 32.2692 55.0992 30.8898 54.9506 29.5015L56.7403 29.3099ZM56.9 33.7229V33.7374H55.1V33.7229H56.9ZM56.9 33.7374C56.9 34.2241 56.8005 34.6858 56.7268 35.0425C56.6471 35.4286 56.5909 35.7187 56.5909 36.0069H54.7909C54.7909 35.5064 54.8892 35.0405 54.964 34.6783C55.0449 34.2868 55.1 34.0081 55.1 33.7374H56.9ZM54.7911 35.9858L54.9457 29.3846L56.7452 29.4268L56.5906 36.0279L54.7911 35.9858ZM55.5777 37.181C54.3942 37.2355 53.2438 37.1994 52.1272 37.1517C50.9999 37.1034 49.9201 37.0442 48.8215 37.0442V35.2442C49.9701 35.2442 51.1064 35.3064 52.2041 35.3533C53.3124 35.4007 54.3958 35.4335 55.4949 35.3829L55.5777 37.181ZM48.8399 35.2444L55.5548 35.3821L55.5179 37.1817L48.803 37.044L48.8399 35.2444ZM39.5046 36.9043C37.5389 37.0242 35.6371 36.906 33.8083 36.906V35.106C35.7961 35.106 37.4924 35.2237 39.3951 35.1077L39.5046 36.9043ZM33.8083 36.906C33.4146 36.906 33.0487 36.8658 32.7375 36.8321C32.4131 36.7969 32.1472 36.7687 31.8764 36.7687V34.9687C32.2604 34.9687 32.6225 35.0091 32.9315 35.0426C33.2535 35.0775 33.5262 35.106 33.8083 35.106V36.906Z" fill="black"/>
</svg>
