<svg width="1000" height="1000" viewBox="0 0 1000 1000" fill="none" xmlns="http://www.w3.org/2000/svg">
<path d="M498 616.667C418.5 616.667 354 633.5 354 654C354 674.667 418.5 691.5 498 691.5C568.833 691.5 627.833 678.167 639.833 660.667C641.333 658.5 642 656.333 642 654.167C642 633.5 577.5 616.667 498 616.667ZM498 659.333C452.167 659.333 415.167 653.833 415.167 647C415.167 647 415.167 646.833 415.167 646.5C415.167 646.333 415.167 646.333 415.333 646.167C415.333 646.167 415.333 646 415.5 646C418.667 639.667 454.5 634.667 498 634.667C540 634.667 574.667 639.333 580 645.333C580.5 645.833 580.667 646.333 580.667 646.833V647C580.833 653.833 543.667 659.333 498 659.333Z" fill="#7A97F4"/>
<path d="M325.333 628.5H186.667C183.167 628.5 179.667 629.667 176.833 631.833L123.5 673.667C121 675.667 122.333 679.667 125.5 679.667H272C275.667 679.667 279.333 678.167 282 675.667L326.833 632.333C328.333 631 327.333 628.5 325.333 628.5Z" fill="#7A97F4"/>
<path d="M875.5 628.5H736.667C733.167 628.5 729.667 629.667 726.833 631.833L673.5 673.667C671 675.667 672.333 679.667 675.5 679.667H822C825.667 679.667 829.333 678.167 832 675.667L876.833 632.333C878.5 631 877.5 628.5 875.5 628.5Z" fill="#7A97F4"/>
<path d="M498 609.833C418.5 609.833 354 626.667 354 647.167C354 667.833 418.5 684.667 498 684.667C568.833 684.667 627.833 671.333 639.833 653.833C641.333 651.667 642 649.5 642 647.333C642 626.667 577.5 609.833 498 609.833ZM498 652.5C452.167 652.5 415.167 647 415.167 640.167C415.167 640.167 415.167 640 415.167 639.667C415.167 639.5 415.167 639.5 415.333 639.333C415.333 639.333 415.333 639.167 415.5 639.167C418.667 632.833 454.5 627.833 498 627.833C540 627.833 574.667 632.5 580 638.5C580.5 639 580.667 639.5 580.667 640V640.167C580.833 647 543.667 652.5 498 652.5Z" fill="#FF97C9"/>
<path d="M639.833 653.833C627.833 671.333 569 684.667 498 684.667C418.5 684.667 354 667.833 354 647.167C354 647.167 379 677.333 493 677.333C591 677.5 630.5 659 639.833 653.833Z" fill="#F774B9"/>
<path d="M580 638.5C574.5 632.5 539.833 627.833 498 627.833C454.333 627.833 418.667 632.833 415.5 639.167C417 635.5 427 622.833 498 622.833C563.333 622.833 577.167 634.167 580 638.5Z" fill="#F774B9"/>
<path d="M326.5 628.5L297.333 419.833C297 417.667 295.167 416 292.833 416H253.5C250.833 416 248.667 418.333 249 421.167L258.833 500C259.167 503.167 256.833 505.833 253.667 505.833H208.667C205.833 505.833 203.5 503.667 203.333 500.833L199.667 420.5C199.5 418 197.5 416.167 195.167 416.167H158.333C155.667 416.167 153.667 418.333 153.833 420.833L158.833 558.167C159 562.5 162.667 566 167 566H267.167L275 628.833H326.5V628.5Z" fill="#273D7A"/>
<path d="M876.667 628.5L847.5 419.833C847.167 417.667 845.333 416 843 416H803.667C801 416 798.833 418.333 799.167 421.167L809 500C809.333 503.167 807 505.833 803.833 505.833H758.833C756 505.833 753.667 503.667 753.5 500.833L749.833 420.5C749.667 418 747.667 416.167 745.333 416.167H708.667C706 416.167 704 418.333 704.167 420.833L709.167 558.167C709.333 562.5 713 566 717.333 566H817.5L825.333 628.833H876.667V628.5Z" fill="#273D7A"/>
<path d="M296.167 422L274.167 671.333C273.833 676 269.833 679.667 265.167 679.667H232.167C226.667 679.667 222.5 674.833 223.167 669.5L237 552.667L138.167 554.333C132.667 554.333 128.5 549.5 129.5 544.167L129.833 542L152.5 420.5C153.167 417.167 156 414.667 159.5 414.667H191C195.333 414.667 198.667 418.667 198 423L184.5 499.667C184 502.833 186.333 505.5 189.5 505.5H236.667L247.667 420.333C248.167 417 251 414.5 254.333 414.5H289.5C293.333 414.667 296.5 418.167 296.167 422Z" fill="#FF97C9"/>
<path d="M237.667 542L236.833 552.667L138 554.333C132.5 554.333 128.333 549.5 129.333 544.167L129.667 542H237.667V542Z" fill="#F774B9"/>
<path d="M296.167 422L274.167 671.333C273.833 676 269.833 679.667 265.167 679.667H260.167L286.333 414.667H289.5C293.333 414.667 296.5 418.167 296.167 422Z" fill="#F774B9"/>
<path d="M184.333 499.833C183.833 503 186.167 505.667 189.333 505.667H179.667C176.167 505.667 173.333 502.5 174 499L188.833 414.833H191C195.333 414.833 198.667 418.833 198 423.167L184.333 499.833Z" fill="#F774B9"/>
<path d="M846.167 422L824.167 671.333C823.833 676 819.833 679.667 815.167 679.667H782.167C776.667 679.667 772.5 674.833 773.167 669.5L787 552.667L688.167 554.333C682.667 554.333 678.5 549.5 679.5 544.167L679.833 542L702.5 420.5C703.167 417.167 706 414.667 709.5 414.667H741C745.333 414.667 748.667 418.667 748 423L734.5 499.667C734 502.833 736.333 505.5 739.5 505.5H786.667L797.667 420.333C798.167 417 801 414.5 804.333 414.5H839.5C843.5 414.667 846.667 418.167 846.167 422Z" fill="#FF97C9"/>
<path d="M787.833 542L787 552.667L688.167 554.333C682.667 554.333 678.5 549.5 679.5 544.167L679.833 542H787.833V542Z" fill="#F774B9"/>
<path d="M846.167 422L824.167 671.333C823.833 676 819.833 679.667 815.167 679.667H810.167L836.333 414.667H839.5C843.5 414.667 846.667 418.167 846.167 422Z" fill="#F774B9"/>
<path d="M734.5 499.833C734 503 736.333 505.667 739.5 505.667H729.833C726.333 505.667 723.5 502.5 724.167 499L739 414.833H741.167C745.5 414.833 748.833 418.833 748.167 423.167L734.5 499.833Z" fill="#F774B9"/>
<path opacity="0.28" d="M432.167 472.833L398 646.167C396.167 655.5 402.167 664.333 410.333 664.333H591.333C599.333 664.333 605.333 655.833 603.833 646.833L575.833 473.5C574.667 466.5 569.5 461.5 563.333 461.5H444.667C438.667 461.333 433.5 466.167 432.167 472.833Z" fill="#FF97C9"/>
<path d="M586.5 483.667L603 538.5C603.333 539.667 604.5 540.333 605.667 539.833C606.5 539.5 607.167 538.5 606.833 537.5L596 481.333C595.333 478.333 592 476.667 589.167 477.833C587 478.833 585.833 481.167 586.5 483.667Z" fill="#FEC272"/>
<path d="M555.333 503.5L566 545.833C566.167 546.667 567 547 567.667 546.833C568.333 546.667 568.667 546 568.5 545.333L561.667 502.167C561.333 500.167 559.167 498.833 557.167 499.667C555.833 500.333 555 501.833 555.333 503.5Z" fill="#FEC272"/>
<path d="M416.333 489L402.5 531.167C402.333 532 401.333 532.333 400.667 532C400 531.667 399.667 531 399.833 530.333L409.833 487.167C410.333 485.167 412.667 484 414.5 484.833C416.167 485.667 416.833 487.333 416.333 489Z" fill="#FEC272"/>
<path d="M443.833 502L425.833 580.333C425.667 581.167 424.833 581.5 424.167 581.333C423.5 581.167 423.167 580.5 423.333 579.833L437.5 500.667C437.833 498.667 440 497.333 442 498.167C443.5 498.667 444.333 500.333 443.833 502Z" fill="#FEC272"/>
<path d="M482 511.167L473.333 568C473.167 568.833 472.333 569.333 471.667 569C471 568.833 470.667 568.167 470.667 567.5L475.333 510.167C475.667 508.167 477.667 506.833 479.667 507.5C481.333 507.833 482.333 509.5 482 511.167Z" fill="#FEC272"/>
<path d="M526.667 510L528.833 600.167C528.833 601 528.167 601.5 527.333 601.5C526.667 601.333 526.167 600.833 526.167 600.167L520 510C520 507.833 521.833 506.333 523.833 506.667C525.5 507 526.667 508.5 526.667 510Z" fill="#FEC272"/>
<path d="M353.5 428.167C351.667 426 350.333 423.833 349.333 421.667L345.5 396L354.333 404.167L353.5 428.167Z" fill="#738DE0"/>
<path d="M602.167 436.833C602.167 436.833 596.667 448.333 584.667 461.167C569.667 477.167 544.333 495.333 506.667 495.333C480.167 495.333 460.5 486.5 446.5 475.833C424.5 459.167 415.833 437.833 415.833 437.833L602.167 436.833Z" fill="#273D7A"/>
<path d="M602.167 436.833C602.167 436.833 596.667 448.333 584.667 461.167C571.833 466.167 556 470.333 536.333 473C497.667 478.167 467.5 477.833 446.5 475.833C424.5 459.167 415.833 437.833 415.833 437.833L602.167 436.833Z" fill="#072359"/>
<path d="M660.833 395C660.833 395 659.833 405.5 656.5 418.5C656 420.333 655.167 422.5 653.833 424.5C650.333 430.167 643.667 436.333 632.833 442.167C631 443.167 628.833 444.167 626.667 445.167C625 446 623.333 446.667 621.5 447.5C619 448.5 616.5 449.5 613.833 450.5C604.5 453.833 593.5 456.667 580.5 459.333C579.5 459.5 578.667 459.667 577.667 459.833C575.167 460.333 572.167 460.667 569 461C555.667 462.5 538 463.5 519.167 463.833C515.667 463.833 512.167 464 508.667 464C490.833 464.167 472.833 463.667 457.167 462.833C453.833 462.667 450.5 462.5 447.5 462.167C438.333 461.5 430.333 460.5 424.5 459.333C416 457.667 408.333 455.833 401.5 453.833C398.667 453 396 452.167 393.333 451.333C372.667 444.5 360.167 436.167 353.667 428.5C352.667 427.333 351.833 426.333 351.167 425.167C350.5 424.167 349.833 423 349.5 422C349 420.833 348.5 419.833 348.333 418.667C346.833 412.5 345.667 406.167 345.167 401.333C344.5 395.833 344.333 392.167 344.333 392.167L502.667 404L661 395.167L660.833 395Z" fill="#99ADF9"/>
<path d="M660.667 394.667C660.667 395.833 659.833 397.333 658.333 399.167C654.167 404 644.167 411.167 627.167 417.667C625 418.5 622.667 419.333 620.167 420.167C619 420.5 617.833 421 616.667 421.333C614.167 422.167 611.5 423 608.667 423.667C599.167 426.333 588.167 428.833 575.5 430.667C572.5 431.167 569.333 431.667 566 432C552 433.833 536.333 435 518.833 435.333C515.5 435.333 512 435.5 508.5 435.5H508.333C490.5 435.5 474 434.667 459.167 433.333C455.833 433 452.5 432.667 449.333 432.333C433 430.5 418.5 427.833 406 424.833C403.167 424.167 400.333 423.333 397.667 422.667C372.833 415.833 356.5 407.333 349 400.333C347.5 399 346.333 397.5 345.5 396.333C344.5 394.833 344 393.5 344 392.167C344 380.333 390.667 355.167 509.167 355.167C627.667 355 660.667 386.5 660.667 394.667Z" fill="#273D7A"/>
<path d="M440.833 368.667L354.167 404.167C350.833 402 346.167 397.333 345.333 396L438 367.167L440.833 368.667Z" fill="#072359"/>
<path d="M660.667 394.833C660.667 395.833 659.833 397.333 658.333 399.167L569.333 368.667L572.167 367.333L660.667 394.833Z" fill="#072359"/>
<path d="M455.5 377.833L406 424.667C403.167 424 400.333 423.167 397.667 422.5L452.5 377.667L455.5 377.833Z" fill="#072359"/>
<path d="M482.667 383.333L459.167 433.333C455.833 433 452.5 432.667 449.333 432.333L479.667 383.167L482.667 383.333Z" fill="#072359"/>
<path d="M575.667 430.833C572.667 431.333 569.333 431.833 566.167 432.167L543.167 383.333L546.333 383.167L575.667 430.833Z" fill="#072359"/>
<path d="M518.833 435.5C515.5 435.5 512 435.667 508.5 435.667H508.333L512.333 386.5L515.5 386.333L518.833 435.5Z" fill="#072359"/>
<path d="M627 417.667C624.833 418.5 622.5 419.333 620 420.167L560.167 377.833L563.333 377.667L627 417.667Z" fill="#072359"/>
<path d="M519 463.5C515.5 463.5 512 463.667 508.5 463.667V435.5L518.833 435.333L519 463.5Z" fill="#738DE0"/>
<path d="M577.333 459.5C574.667 460 571.833 460.333 568.667 460.667L566 432L575.5 430.667L577.333 459.5Z" fill="#738DE0"/>
<path d="M632.667 442C630.833 443 628.667 444 626.5 445L620.167 420L627 417.667L632.667 442Z" fill="#738DE0"/>
<path d="M459.167 433.333L457.167 462.5C453.833 462.333 450.5 462.167 447.5 461.833L449.5 432.333L459.167 433.333Z" fill="#738DE0"/>
<path d="M406 424.667L401.333 453.5C398.5 452.667 395.833 451.833 393.167 451L397.5 422.5L406 424.667Z" fill="#738DE0"/>
<path d="M354.333 404.5L351 425C350.333 424 349.667 422.833 349.333 421.833C348.833 420.667 348.333 419.667 348.167 418.5C346.667 412.333 345.5 406 345 401.167L345.5 396.167C345.5 396.167 348.333 399.5 349.5 400.667C350.5 401.667 354.333 404.5 354.333 404.5Z" fill="#738DE0"/>
<path d="M501.333 406.333C550.395 406.333 590.167 395.066 590.167 381.167C590.167 367.267 550.395 356 501.333 356C452.272 356 412.5 367.267 412.5 381.167C412.5 395.066 452.272 406.333 501.333 406.333Z" fill="#072359"/>
<path d="M582.5 377.167C582.5 377.167 576 384.5 560 390.833C548.167 395.5 531.167 399.5 507.833 399.5C495 399.5 483.833 398.333 474.5 396.5C443.333 390.5 429.833 377.5 429.833 377.5C429.833 377.5 436.667 326.833 479.333 309.667C488 306.167 498.333 304 510.333 304C569 304 582.5 377.167 582.5 377.167Z" fill="#99ADF9"/>
<path d="M474.5 396.5C443.333 390.5 429.833 377.5 429.833 377.5C429.833 377.5 436.667 326.833 479.333 309.667C471 316.667 462.833 330.667 461.5 353.5C460.167 370.5 464.167 384.667 474.5 396.5Z" fill="#7A97F4"/>
<path d="M582.5 377.167C582.5 377.167 576 384.5 560 390.833C557.5 381.5 553.667 373.167 553.667 373.167C553.667 373.167 538 376.5 531 361.667C524 346.833 540.833 336.167 540.833 336.167C540.833 336.167 536.833 323.333 516.167 315C495.5 306.667 479 309.667 479 309.667C487.667 306.167 498 304 510 304C569 304 582.5 377.167 582.5 377.167Z" fill="#C2D1FF"/>
<path d="M515.333 345.833C517.819 345.833 519.833 343.893 519.833 341.5C519.833 339.107 517.819 337.167 515.333 337.167C512.848 337.167 510.833 339.107 510.833 341.5C510.833 343.893 512.848 345.833 515.333 345.833Z" fill="#C2D1FF"/>
<path d="M499.667 350C501.6 350 503.167 348.508 503.167 346.667C503.167 344.826 501.6 343.333 499.667 343.333C497.734 343.333 496.167 344.826 496.167 346.667C496.167 348.508 497.734 350 499.667 350Z" fill="#C2D1FF"/>
<path d="M510.167 372.5C513.941 372.5 517 369.515 517 365.833C517 362.151 513.941 359.167 510.167 359.167C506.393 359.167 503.333 362.151 503.333 365.833C503.333 369.515 506.393 372.5 510.167 372.5Z" fill="#C2D1FF"/>
</svg>
