<svg width="37" height="37" viewBox="0 0 37 37" fill="none" xmlns="http://www.w3.org/2000/svg">
<path d="M7.07692 19.7692H9.61538C10.2886 19.7692 10.9343 20.0367 11.4103 20.5127C11.8864 20.9888 12.1538 21.6344 12.1538 22.3077V32.4615C12.1538 33.1348 11.8864 33.7804 11.4103 34.2565C10.9343 34.7326 10.2886 35 9.61538 35H4.53846C3.86522 35 3.21955 34.7326 2.7435 34.2565C2.26744 33.7804 2 33.1348 2 32.4615V18.5C2 14.1239 3.73839 9.92709 6.83274 6.83274C9.92709 3.73839 14.1239 2 18.5 2C22.8761 2 27.0729 3.73839 30.1673 6.83274C33.2616 9.92709 35 14.1239 35 18.5V32.4615C35 33.1348 34.7326 33.7804 34.2565 34.2565C33.7804 34.7326 33.1348 35 32.4615 35H27.3846C26.7114 35 26.0657 34.7326 25.5897 34.2565C25.1136 33.7804 24.8462 33.1348 24.8462 32.4615V22.3077C24.8462 21.6344 25.1136 20.9888 25.5897 20.5127C26.0657 20.0367 26.7114 19.7692 27.3846 19.7692H29.9231" stroke="black" stroke-width="4" stroke-linecap="round" stroke-linejoin="round"/>
</svg>
