<svg width="31" height="31" viewBox="0 0 31 31" fill="none" xmlns="http://www.w3.org/2000/svg">
<path d="M15.5001 23.5728C14.9651 23.5728 14.5313 24.0066 14.5313 24.5416C14.5313 25.0766 14.9651 25.5103 15.5001 25.5103H23.2501C24.4985 25.5103 25.5105 24.4983 25.5105 23.2499V7.74992C25.5105 6.50153 24.4985 5.4895 23.2501 5.4895H15.5001C14.9651 5.4895 14.5313 5.92323 14.5313 6.45825C14.5313 6.99328 14.9651 7.427 15.5001 7.427L23.2501 7.427C23.4284 7.427 23.573 7.57158 23.573 7.74992L23.573 23.2499C23.573 23.4283 23.4284 23.5728 23.2501 23.5728H15.5001Z" fill="black"/>
<path fill-rule="evenodd" clip-rule="evenodd" d="M4.198 16.9404C4.198 17.8321 4.92087 18.555 5.81258 18.555H11.7705C11.7789 18.6498 11.7878 18.7446 11.797 18.8394L11.8668 19.5574C11.9732 20.6529 13.1365 21.309 14.1291 20.8333C16.2399 19.8217 18.279 18.3035 19.8981 16.6131C20.4977 15.987 20.4977 14.9998 19.8981 14.3737L19.77 14.2399C18.1509 12.5495 16.2399 11.1651 14.1291 10.1535C13.1365 9.67783 11.9732 10.3339 11.8668 11.4294L11.797 12.1474C11.7878 12.2422 11.7789 12.337 11.7705 12.4318L5.81258 12.4318C4.92087 12.4318 4.198 13.1547 4.198 14.0464V16.9404ZM13.6313 17.4771C13.5764 16.9902 13.1639 16.6175 12.6687 16.6175H6.1355L6.1355 14.3693H12.6687C13.1803 14.3693 13.6037 13.9715 13.6356 13.4609C13.659 13.0852 13.689 12.7097 13.7254 12.3348L13.7456 12.1264C15.4311 12.995 16.965 14.1319 18.2871 15.4934C17.7351 16.0619 17.1462 16.5912 16.5247 17.0782C15.6577 17.7575 14.7274 18.3545 13.7456 18.8604L13.7254 18.652C13.689 18.2771 13.659 17.9017 13.6356 17.5259C13.6346 17.5095 13.6331 17.4932 13.6313 17.4771Z" fill="black"/>
</svg>
