<svg width="37" height="41" viewBox="0 0 37 41" fill="none" xmlns="http://www.w3.org/2000/svg">
<path d="M25.5 19.0769C25.5 20.964 24.7098 22.7738 23.3033 24.1082C21.8968 25.4426 19.9891 26.1923 18 26.1923C16.0109 26.1923 14.1032 25.4426 12.6967 24.1082C11.2902 22.7738 10.5 20.964 10.5 19.0769V9.11537C10.5 7.22826 11.2902 5.41844 12.6967 4.08404C14.1032 2.74965 16.0109 2 18 2C19.9891 2 21.8968 2.74965 23.3033 4.08404C24.7098 5.41844 25.5 7.22826 25.5 9.11537V19.0769Z" stroke="black" stroke-width="4" stroke-linecap="round" stroke-linejoin="round"/>
<path d="M33 20.4999C33.0039 22.1829 32.6574 23.85 31.9804 25.4056C31.3034 26.9612 30.3091 28.3746 29.0547 29.5646C27.8004 30.7547 26.3106 31.6979 24.6709 32.3403C23.0312 32.9826 21.2739 33.3113 19.5 33.3076H16.5C14.7261 33.3113 12.9688 32.9826 11.3291 32.3403C9.68943 31.6979 8.19964 30.7547 6.94526 29.5646C5.69089 28.3746 4.69664 26.9612 4.0196 25.4056C3.34257 23.85 2.99608 22.1829 3.00003 20.4999V20.4999" stroke="black" stroke-width="4" stroke-linecap="round" stroke-linejoin="round"/>
<path d="M18 33.3077V39" stroke="black" stroke-width="4" stroke-linecap="round" stroke-linejoin="round"/>
</svg>
