<svg width="33" height="42" viewBox="0 0 33 42" fill="none" xmlns="http://www.w3.org/2000/svg">
<path d="M23.75 19.4C23.75 21.3228 22.9861 23.1668 21.6265 24.5265C20.2669 25.8861 18.4228 26.6499 16.5 26.6499C14.5772 26.6499 12.7331 25.8861 11.3735 24.5265C10.0139 23.1668 9.25002 21.3228 9.25002 19.4V9.24998C9.25002 7.32717 10.0139 5.48311 11.3735 4.12347C12.7331 2.76384 14.5772 2 16.5 2C18.4228 2 20.2669 2.76384 21.6265 4.12347C22.9861 5.48311 23.75 7.32717 23.75 9.24998V19.4Z" stroke="black" stroke-width="4" stroke-linecap="round" stroke-linejoin="round"/>
<path d="M31 20.8499C31.0038 22.5647 30.6689 24.2634 30.0144 25.8484C29.3599 27.4334 28.3988 28.8735 27.1862 30.0861C25.9737 31.2987 24.5335 32.2598 22.9485 32.9142C21.3635 33.5687 19.6648 33.9036 17.95 33.8998H15.05C13.3352 33.9036 11.6365 33.5687 10.0515 32.9142C8.46645 32.2598 7.02632 31.2987 5.81375 30.0861C4.60119 28.8735 3.64008 27.4334 2.98562 25.8484C2.33115 24.2634 1.99621 22.5647 2.00003 20.8499V20.8499" stroke="black" stroke-width="4" stroke-linecap="round" stroke-linejoin="round"/>
<path d="M16.5 33.9V39.7" stroke="black" stroke-width="4" stroke-linecap="round" stroke-linejoin="round"/>
</svg>
