<svg width="37" height="37" viewBox="0 0 37 37" fill="none" xmlns="http://www.w3.org/2000/svg">
<g clip-path="url(#clip0_244_42)">
<path d="M1.32141 35.6786L35.6786 1.32141" stroke="black" stroke-width="4" stroke-linecap="round" stroke-linejoin="round"/>
<path d="M14.5357 22.4643C13.7136 21.8503 13.0464 21.0525 12.5876 20.1348C12.1287 19.217 11.8908 18.2046 11.8928 17.1786V7.92855C11.8928 6.17623 12.5889 4.49568 13.828 3.2566C15.0671 2.01752 16.7477 1.32141 18.5 1.32141C20.2523 1.32141 21.9329 2.01752 23.1719 3.2566C24.411 4.49568 25.1071 6.17623 25.1071 7.92855V11.8928" stroke="black" stroke-width="4" stroke-linecap="round" stroke-linejoin="round"/>
<path d="M24.4993 19.9271C23.8242 21.4032 22.6295 22.5792 21.1429 23.2307" stroke="black" stroke-width="4" stroke-linecap="round" stroke-linejoin="round"/>
<path d="M9.46142 27.5386C8.14809 26.4279 7.09374 25.0433 6.37237 23.4818C5.65101 21.9204 5.28011 20.22 5.28571 18.5V18.5" stroke="black" stroke-width="4" stroke-linecap="round" stroke-linejoin="round"/>
<path d="M31.7143 18.5C31.7177 20.0628 31.4125 21.6108 30.8161 23.0553C30.2196 24.4998 29.3437 25.8122 28.2387 26.9173C27.1336 28.0223 25.8212 28.8982 24.3767 29.4947C22.9322 30.0911 21.3842 30.3963 19.8214 30.3929H17.1785C16.6856 30.4192 16.1915 30.4192 15.6985 30.3929" stroke="black" stroke-width="4" stroke-linecap="round" stroke-linejoin="round"/>
<path d="M18.5 30.3928V35.6785" stroke="black" stroke-width="4" stroke-linecap="round" stroke-linejoin="round"/>
</g>
<defs>
<clipPath id="clip0_244_42">
<rect width="37" height="37" fill="white"/>
</clipPath>
</defs>
</svg>
