<svg width="68" height="71" viewBox="0 0 68 71" fill="none" xmlns="http://www.w3.org/2000/svg">
<path d="M22.1795 40.4516C19.37 38.9944 12.67 35.1802 12.4023 34.3894C12.0257 33.2766 12.4418 32.0076 12.7585 30.9315C10.512 29.5472 8.2812 28.116 5.99995 26.7895C4.8058 26.095 3.13464 25.139 2.37698 23.9451C1.60038 22.7212 1.9533 19.7068 3.99095 20.1345C4.98479 20.343 5.88949 20.9719 6.77211 21.4453C8.55626 22.4023 10.2876 23.452 12.0335 24.475C11.389 23.1867 12.4201 21.3059 13.8355 21.0929C14.3603 21.0136 14.8761 21.2331 15.3401 21.4604C14.5457 19.4498 16.9143 18.6441 18.5124 18.8234C18.5902 18.4648 18.6522 18.1128 18.8122 17.7787C19.4957 16.3513 21.326 16.4433 22.5832 16.9477C23.6734 17.3849 29.5269 20.8485 32.4845 22.6959" stroke="black" stroke-width="3" stroke-miterlimit="1.5" stroke-linecap="round" stroke-linejoin="round"/>
<path d="M12.7413 30.932C14.2224 31.8936 15.8835 32.585 17.3624 33.5577" stroke="black" stroke-width="3" stroke-miterlimit="1.5" stroke-linecap="round" stroke-linejoin="round"/>
<path d="M25.7534 43.6376C24.4159 42.906 23.195 42.1225 21.9425 41.3376C22.5496 39.768 23.5717 38.4501 24.4509 37.0358C25.29 35.6861 25.9896 34.2474 26.8158 32.887C28.9759 29.3302 30.8321 25.5648 33.1065 22.0748C34.0902 22.6896 35.6294 23.5376 36.9283 24.2914" stroke="black" stroke-width="3" stroke-miterlimit="1.5" stroke-linecap="round" stroke-linejoin="round"/>
<path d="M48.475 58.6316C44.4425 56.4287 29.5436 48.2244 25.0922 44.6319C27.5761 41.0299 29.3676 37.0226 31.6252 33.2951C33.7252 29.828 35.9326 26.3619 37.8931 22.8104C39.5428 24.3291 57.1557 34.0708 61.8881 37.3933" stroke="black" stroke-width="3" stroke-miterlimit="1.5" stroke-linecap="round" stroke-linejoin="round"/>
</svg>
