<svg width="13" height="22" viewBox="0 0 13 22" fill="none" xmlns="http://www.w3.org/2000/svg">
<path fill-rule="evenodd" clip-rule="evenodd" d="M11.4967 6.21094C11.5278 8.69534 9.33652 10.145 8.49194 11.367C7.86986 12.2672 8.67316 13.813 8.36484 13.9377C8.00676 14.0826 4.56546 14.1378 4.22215 14.1504C3.84276 14.1645 3.85124 12.983 3.92687 12.1403C4.17588 9.36979 7.10634 8.84512 7.84748 7.18096C8.68271 5.30539 6.52055 4.06752 5.22556 5.33928C4.45682 6.09411 4.50311 7.27656 3.59356 7.82888C2.53735 8.47008 1.34927 7.57315 1.07788 6.53411C0.774977 5.37427 1.40511 4.02814 2.11474 3.13707C4.08266 0.665927 8.01674 0.158576 10.2387 2.5667C10.5939 2.95174 10.8751 3.40256 11.0802 3.88472C11.3359 4.4855 11.4887 5.55846 11.4967 6.21094Z" fill="white" stroke="black" stroke-width="1.5" stroke-miterlimit="1.5" stroke-linecap="round" stroke-linejoin="round"/>
<path fill-rule="evenodd" clip-rule="evenodd" d="M6.89834 16.3011C6.21368 16.156 5.49557 16.1603 4.91109 16.5988C3.57674 17.6 3.71669 19.6905 5.30261 20.3475C6.02965 20.6487 6.9985 20.4925 7.5693 19.9393C8.25744 19.2727 8.39605 17.9939 7.76658 17.2582" fill="white"/>
<path d="M6.89834 16.3011C6.21368 16.156 5.49557 16.1603 4.91109 16.5988C3.57674 17.6 3.71669 19.6905 5.30261 20.3475C6.02965 20.6487 6.9985 20.4925 7.5693 19.9393C8.25744 19.2727 8.39605 17.9939 7.76658 17.2582" stroke="black" stroke-width="1.5" stroke-miterlimit="1.5" stroke-linecap="round" stroke-linejoin="round"/>
</svg>
