<svg width="32" height="23" viewBox="0 0 32 23" fill="none" xmlns="http://www.w3.org/2000/svg">
<path d="M12.2972 2.448C9.47155 0.236774 5.27395 0.649049 2.89611 3.06557C0.446563 5.55477 0.195257 10.3942 3.17856 12.7669C4.90326 14.1386 7.82803 14.9264 10.0147 14.2836C14.0913 13.0856 16.2178 8.108 13.9374 4.22259" stroke="black" stroke-width="1.33333" stroke-miterlimit="1.5" stroke-linecap="round" stroke-linejoin="round"/>
<path fill-rule="evenodd" clip-rule="evenodd" d="M11.1552 13.8289C10.4794 14.1933 9.7042 14.3722 9.35303 14.4318C9.68857 15.7862 10.2887 17.4216 10.818 18.7085C11.1484 19.5122 11.5577 20.2464 11.9265 21.0331C12.2182 21.6556 13.091 22.4548 13.6736 21.6306C14.1196 20.9998 13.7345 20.0384 13.5155 19.3942C12.9109 17.6141 11.8572 15.5637 11.1552 13.8289Z" fill="black" stroke="black" stroke-width="1.33333" stroke-miterlimit="1.5" stroke-linecap="round" stroke-linejoin="round"/>
<path d="M8.44141 4.19392C8.85895 4.1908 9.30237 4.2852 9.69941 4.47051C10.1438 4.67792 10.53 4.9992 10.757 5.42515" stroke="black" stroke-width="1.33333" stroke-miterlimit="1.5" stroke-linecap="round" stroke-linejoin="round"/>
</svg>
