<svg width="22" height="24" viewBox="0 0 22 24" fill="none" xmlns="http://www.w3.org/2000/svg">
<path d="M10.0991 6.05174C9.37672 5.12724 7.44675 5.21601 5.74264 5.43761C4.37608 5.61526 2.77859 6.25257 1.85426 7.35286C0.105842 9.43377 1.29452 20.8456 3.14598 22.3294C4.39867 23.3336 6.44011 23.2797 7.92616 23.1989C10.6174 23.0525 14.8925 23.3758 17.1272 21.8346C18.8816 20.6247 18.8837 14.9266 17.9633 13.5157C17.67 13.0664 16.0475 12.8397 15.6224 13.2431C15.0554 13.7812 16.23 18.2098 14.9296 19.3153C14.0716 20.0446 6.04054 20.6562 5.04515 19.3872C4.31699 18.4586 3.56206 11.0206 4.38054 9.52596C5.01912 8.35985 6.03606 8.2678 8.57827 8.1023C9.00574 8.07444 9.75184 7.8379 10.1376 7.06206C10.2781 6.7795 10.4334 6.47996 10.0991 6.05174Z" stroke="black" stroke-width="1.2" stroke-miterlimit="1.5" stroke-linecap="round" stroke-linejoin="round"/>
<path d="M18.155 7.01436C18.7382 7.49287 20.0168 8.77791 20.845 8.52284C21.478 8.32799 21.3841 7.48668 21.438 6.973C21.5634 5.77415 21.5283 1.59615 21.1824 1.27152C20.49 0.622079 16.6387 1.28967 15.3627 1.69582C14.7766 1.88244 13.9297 2.11935 13.9133 2.87706C13.8933 3.78866 15.0487 4.4506 15.6213 4.98935C13.8059 7.21498 11.6994 9.21247 9.80101 11.3628C8.95859 12.317 7.91517 13.4594 8.29291 14.852C8.73328 16.476 10.6625 15.5629 11.4397 14.8161C12.6211 13.6804 13.6339 12.2884 14.7037 11.046C15.3979 10.2399 16.0655 9.39663 16.7751 8.60583C17.2303 8.0989 17.78 7.58431 18.155 7.01436Z" stroke="black" stroke-width="1.2" stroke-miterlimit="1.5" stroke-linecap="round" stroke-linejoin="round"/>
</svg>
