<svg width="20" height="19" viewBox="0 0 20 19" fill="none" xmlns="http://www.w3.org/2000/svg">
<path d="M2 18L19 2" stroke="black" stroke-width="1.71429" stroke-linecap="round" stroke-linejoin="round"/>
<path d="M5.85713 6.1217H3.2857C2.83104 6.1217 2.395 6.30232 2.07351 6.62381C1.75202 6.9453 1.57141 7.38133 1.57141 7.83599V11.2646C1.57141 11.7192 1.75202 12.1553 2.07351 12.4767C2.395 12.7982 2.83104 12.9788 3.2857 12.9788H5.85713V6.1217Z" stroke="black" stroke-width="1.71429" stroke-linecap="round" stroke-linejoin="round"/>
<path d="M15.2857 4.40741V2.69312C15.2847 2.37655 15.1961 2.06642 15.0297 1.79712C14.8633 1.52782 14.6255 1.30986 14.3428 1.16741C14.0703 1.03724 13.7683 0.981378 13.4672 1.00546C13.1662 1.02954 12.8769 1.13272 12.6285 1.30455L5.85712 6.12169" stroke="black" stroke-width="1.71429" stroke-linecap="round" stroke-linejoin="round"/>
<path d="M9.57712 15.6532L12.56 17.796C12.8083 17.9678 13.0976 18.071 13.3987 18.0951C13.6997 18.1192 14.0018 18.0633 14.2743 17.9332C14.5698 17.8004 14.8217 17.5866 15.0007 17.3166C15.1797 17.0466 15.2785 16.7313 15.2857 16.4074V9.55029" stroke="black" stroke-width="1.71429" stroke-linecap="round" stroke-linejoin="round"/>
<path d="M5.85712 12.9788L6.35426 13.3388" stroke="black" stroke-width="1.71429" stroke-linecap="round" stroke-linejoin="round"/>
</svg>
